{"title":"Saving Mr Banks 2013 DVDSCR XVID AC3 ACAB","uid":9386686,"size":1659652848,"categoryP":"video","categoryS":"movies","magnet":"?xt=urn:btih:64c00cae02b4af69aea54348e1a67ab0690e5a7a&amp;dn=Saving+Mr+Banks+2013+DVDSCR+XVID+AC3+ACAB&amp;tr=udp%3A%2F%2Ftracker.openbittorrent.com%3A80&amp;tr=udp%3A%2F%2Fopen.demonii.com%3A1337&amp;tr=udp%3A%2F%2Ftracker.coppersurfer.tk%3A6969&amp;tr=udp%3A%2F%2Fexodus.desync.com%3A6969","seeders":1,"leechers":0,"uploader":"xxxlavalxxx","files":-1,"time":1387815890,"description":" &lt;a href=&quot;http://www.imdb.com/title/tt2140373/&quot; rel=&quot;nofollow&quot; target=&quot;_NEW&quot;&gt;http://www.imdb.com/title/tt2140373/&lt;/a&gt;\n\n\nAuthor P. L. Travers reflects on her difficult childhood while meeting with filmmaker Walt Disney during production for the adaptation of her novel, Mary Poppins.\n\nDirector: John Lee Hancock\nWriters: Kelly Marcel, Sue Smith\nStars: Emma Thompson, Tom Hanks, Annie Rose Buckley\nGenres: Biography | Comedy | Drama | Family | History | Music\nCountry: USA | UK | Australia\nLanguage: English\n\n\n\nFormat                                   : AVI\nFormat/Info                              : Audio Video Interleave\nFile size                                : 1.53 GiB\nDuration                                 : 2h 4mn\nOverall bit rate                         : 1 757 Kbps\nWriting library                          : VirtualDub build 30091/release\n\nVideo\nID                                       : 0\nFormat                                   : MPEG-4 Visual\nFormat profile                           : Advanced Simple@L5\nFormat settings, BVOP                    : 2\nFormat settings, QPel                    : No\nFormat settings, GMC                     : No warppoints\nFormat settings, Matrix                  : Default (H.263)\nMuxing mode                              : Packed bitstream\nCodec ID                                 : XVID\nCodec ID/Hint                            : XviD\nDuration                                 : 2h 4mn\nBit rate                                 : 1 490 Kbps\nWidth                                    : 640 pixels\nHeight                                   : 272 pixels\nDisplay aspect ratio                     : 2.35:1\nFrame rate                               : 29.970 fps\nColor space                              : YUV\nChroma subsampling                       : 4:2:0\nBit depth                                : 8 bits\nScan type                                : Progressive\nCompression mode                         : Lossy\nBits/(Pixel*Frame)                       : 0.286\nStream size                              : 1.30 GiB (85%)\nWriting library                          : XviD 1.2.1 (UTC 2008-12-04)\n\nAudio\nID                                       : 1\nFormat                                   : AC-3\nFormat/Info                              : Audio Coding 3\nMode extension                           : CM (complete main)\nFormat settings, Endianness              : Big\nCodec ID                                 : 2000\nDuration                                 : 2h 4mn\nBit rate mode                            : Constant\nBit rate                                 : 256 Kbps\nChannel count                            : 2 channels\nChannel positions                        : Front: L R\nSampling rate                            : 48.0 KHz\nBit depth                                : 16 bits\nCompression mode                         : Lossy\nStream size                              : 229 MiB (15%)\n\nSource---DTeCH thx\n\n\n\nscreens\n &lt;a href=&quot;\nhttp://i.imgur.com/LSQ80sT.png&quot; rel=&quot;nofollow&quot; target=&quot;_NEW&quot;&gt;\nhttp://i.imgur.com/LSQ80sT.png&lt;/a&gt; &lt;a href=&quot;\nhttp://i.imgur.com/nKWqNMg.png&quot; rel=&quot;nofollow&quot; target=&quot;_NEW&quot;&gt;\nhttp://i.imgur.com/nKWqNMg.png&lt;/a&gt; &lt;a href=&quot;\nhttp://i.imgur.com/YOy5kA5.png&quot; rel=&quot;nofollow&quot; target=&quot;_NEW&quot;&gt;\nhttp://i.imgur.com/YOy5kA5.png&lt;/a&gt; &lt;a href=&quot;\nhttp://i.imgur.com/qQIZtEB.png&quot; rel=&quot;nofollow&quot; target=&quot;_NEW&quot;&gt;\nhttp://i.imgur.com/qQIZtEB.png&lt;/a&gt;","torrent":{"xt":"urn:btih:64c00cae02b4af69aea54348e1a67ab0690e5a7a","amp;dn":"Saving+Mr+Banks+2013+DVDSCR+XVID+AC3+ACAB","amp;tr":["udp%3A%2F%2Ftracker.openbittorrent.com%3A80","udp%3A%2F%2Fopen.demonii.com%3A1337","udp%3A%2F%2Ftracker.coppersurfer.tk%3A6969","udp%3A%2F%2Fexodus.desync.com%3A6969"],"infoHash":"64c00cae02b4af69aea54348e1a67ab0690e5a7a","infoHashBuffer":{"type":"Buffer","data":[100,192,12,174,2,180,175,105,174,165,67,72,225,166,122,176,105,14,90,122]},"announce":[],"urlList":[]}}